<svg class="social-media__icon" width="103" height="103" viewBox="0 0 103 103" fill="none" xmlns="http://www.w3.org/2000/svg">
<circle cx="51.5" cy="51.5" r="51.5" fill="currentColor"/>
<path fill-rule="evenodd" clip-rule="evenodd" d="M47.7443 43.0342C44.6267 43.1028 42.2181 43.257 41.1387 43.4571C39.9161 43.6837 38.9309 44.5491 38.564 45.7186C38.1023 47.1903 37.8732 51.33 38.0719 54.6073C38.1626 56.1032 38.3156 57.3455 38.496 58.0524C38.8461 59.4234 39.8108 60.2985 41.2606 60.5603C42.8527 60.8477 46.2837 61.0005 51.1386 61C57.1335 60.9994 60.616 60.7883 61.6942 60.36C62.0557 60.2164 62.5759 59.8666 62.8224 59.6013C63.3876 58.993 63.6076 58.4755 63.7983 57.3063C64.0035 56.0483 64.0096 55.8759 63.9952 51.7283C63.9821 47.9395 63.9796 47.8353 63.8894 47.23C63.72 46.0929 63.5457 45.467 63.2696 45.0041C63.193 44.8758 62.9658 44.6072 62.7646 44.4073C62.0819 43.7291 61.4925 43.4988 60.0207 43.3351C57.5629 43.0617 52.3273 42.9334 47.7443 43.0342ZM51.972 50.1298C53.7494 51.1358 55.2183 51.9718 55.2363 51.9876C55.2542 52.0035 53.7817 52.859 51.9639 53.8887C50.1462 54.9185 48.6178 55.7869 48.5675 55.8185L48.476 55.876V52.0095V48.143L48.6082 48.2219C48.6808 48.2653 50.1945 49.1239 51.972 50.1298Z" fill="#797979"/>
</svg>
