<svg width="13" height="13" viewBox="0 0 13 13" fill="none" xmlns="http://www.w3.org/2000/svg">
<path d="M6.49635 0C5.61808 0.0158103 4.73981 0.0237154 3.86154 0.0474308C3.098 0.0711462 2.36215 0.205534 1.70146 0.616601C0.84693 1.14625 0.324714 1.917 0.154598 2.90119C0.0556936 3.49012 0.0200891 4.09881 0.00822067 4.69565C-0.0115604 5.98024 -0.0036478 7.26482 0.00822067 8.54941C0.0161333 9.23715 0.0398703 9.9249 0.269329 10.585C0.708465 11.8419 1.5986 12.5968 2.89227 12.8419C3.47383 12.9526 4.07913 12.9763 4.67651 12.9881C5.97018 13.0079 7.26781 13 8.56543 12.9881C9.24194 12.9802 9.9224 12.9565 10.5752 12.7273C11.8332 12.2885 12.5928 11.4071 12.8421 10.1146C12.9528 9.52964 12.9805 8.92095 12.9884 8.32016C13.0082 7.03557 13.0003 5.75099 12.9884 4.4664C12.9805 3.7747 12.9568 3.08696 12.7234 2.42688C12.2842 1.17391 11.3981 0.41502 10.1044 0.16996C9.52283 0.0592885 8.91753 0.0474308 8.32015 0.0237154C7.71485 0 7.1056 0.0197628 6.49635 0.0197628C6.49635 0.0118577 6.49635 0.00790514 6.49635 0ZM1.15156 6.50593C1.15947 6.50593 1.16738 6.50593 1.17529 6.50593C1.17529 5.95652 1.15947 5.40711 1.17925 4.85771C1.19903 4.3083 1.21485 3.75889 1.29002 3.21739C1.43244 2.21344 2.08521 1.52174 3.08613 1.33597C3.66373 1.22925 4.26507 1.20949 4.85454 1.19763C5.9504 1.17787 7.04626 1.18182 8.14212 1.19763C8.69599 1.20553 9.25381 1.2253 9.79976 1.31225C10.7374 1.4585 11.3822 1.99605 11.6354 2.92885C11.7304 3.27668 11.7739 3.64822 11.7858 4.00791C11.8135 5.09881 11.8253 6.18972 11.8214 7.27668C11.8174 8.06324 11.7976 8.8498 11.7343 9.63241C11.6433 10.7115 10.9747 11.4743 9.91053 11.6798C9.33293 11.7905 8.73159 11.8103 8.14212 11.8182C7.04626 11.8379 5.9504 11.834 4.85454 11.8221C4.36397 11.8182 3.86945 11.7905 3.37888 11.7391C2.91601 11.6917 2.48083 11.5415 2.10895 11.249C1.4997 10.7668 1.27024 10.1028 1.23464 9.36364C1.18716 8.41107 1.17925 7.4585 1.15156 6.50593Z" fill="currentColor" fill-opacity="0.5"/>
<path d="M6.49645 9.84186C8.31629 9.84581 9.81569 8.3636 9.84338 6.58099C9.87107 4.68771 8.34003 3.16992 6.52019 3.16992C4.68452 3.17387 3.18908 4.64423 3.16139 6.43079C3.12974 8.31221 4.64891 9.85372 6.49645 9.84186ZM6.49645 8.66795C5.30959 8.66399 4.33242 7.68771 4.33637 6.50194C4.34033 5.31617 5.31751 4.33988 6.50436 4.34384C7.69517 4.34779 8.66839 5.32407 8.66444 6.50984C8.66444 7.69561 7.6833 8.6719 6.49645 8.66795Z" fill="currentColor" fill-opacity="0.5"/>
<path d="M3.03452 2.26074C2.59142 2.26074 2.25119 2.60066 2.25119 3.0394C2.25119 3.47023 2.59142 3.81805 3.02265 3.822C3.44991 3.82596 3.81388 3.47023 3.81784 3.04335C3.82179 2.61252 3.4697 2.26469 3.03452 2.26074Z" fill="currentColor" fill-opacity="0.5"/>
</svg>
