<svg class="icons-social__item" width="13" height="11" viewBox="0 0 13 11" fill="none" xmlns="http://www.w3.org/2000/svg">
<path d="M3.82097 8.58646C2.58999 8.44776 1.77329 7.84471 1.30576 6.66878C1.68452 6.66878 2.02777 6.66878 2.37694 6.66878C2.38878 6.64466 2.40061 6.62054 2.41245 6.59038C1.14597 6.15619 0.447628 5.28781 0.352938 3.92493C0.737617 4.03348 1.09862 4.12996 1.45963 4.23248C1.47738 4.20836 1.48922 4.18424 1.50697 4.16012C0.784962 3.56913 0.382528 2.82136 0.37661 1.88061C0.37661 1.38611 0.512727 0.897648 0.761289 0.559943C2.21715 2.27259 4.03994 3.24349 6.30658 3.40631C6.29475 3.24349 6.28883 3.09876 6.28291 2.95403C6.24149 1.76603 6.71494 0.849405 7.75653 0.324756C8.7922 -0.199892 9.8042 -0.0913441 10.7097 0.668491C10.9109 0.837344 11.0944 0.885587 11.3311 0.795131C11.7513 0.632309 12.1715 0.475517 12.6153 0.312695C12.4614 0.873526 12.0945 1.27757 11.6743 1.64542C11.6862 1.66954 11.7039 1.69367 11.7158 1.71779C12.1241 1.60924 12.5384 1.50069 12.9467 1.39214C12.9645 1.41024 12.9822 1.42833 13 1.44642C12.6508 1.80824 12.3194 2.18213 11.9525 2.51984C11.769 2.68869 11.698 2.85754 11.6862 3.11082C11.5382 6.42153 10.106 8.94226 7.0937 10.3051C4.70869 11.3846 2.31184 11.1856 0.0333582 9.85285C0.00968562 9.84079 -0.00806879 9.81667 0.00376748 9.82873C0.642926 9.73827 1.31759 9.69003 1.96859 9.53927C2.63142 9.38851 3.22915 9.0508 3.82097 8.58646Z" fill="currentColor" fill-opacity="0.5"/>
</svg>
