<svg class="icon-telephon" width="19" height="19" viewBox="0 0 19 19" fill="none" xmlns="http://www.w3.org/2000/svg">
<g clip-path="url(#clip0)">
<path d="M14.1867 19.0001C13.9333 19.0001 13.5533 19.0001 12.92 18.8735C12.4133 18.7468 11.6533 18.6201 10.8933 18.2401C10.1333 17.8601 9.24667 17.3535 8.10667 16.7201C7.09333 16.0868 6.08 15.0735 4.94 13.9335C4.05333 13.0468 3.29333 12.2868 2.66 11.4001C2.15333 10.6401 1.64667 9.88014 1.26667 9.24681C0.886667 8.61347 0.633333 7.98014 0.38 7.34681C0.253333 6.84014 0.126667 6.20681 0.126667 5.82681C0 5.32014 0 5.06681 0 4.68681C0 4.56014 0 4.43348 0 4.30681C0 3.92681 0.126667 3.80014 0.253333 3.54681C0.38 3.29347 0.506667 3.04014 0.76 2.91347L3.16667 0.506808C3.8 -0.126525 4.56 -0.126525 5.19333 0.253475C5.32 0.380141 5.44667 0.506808 5.7 0.760141L7.72667 4.56014C7.85333 5.06681 7.85333 5.44681 7.85333 5.82681C7.72667 6.08014 7.47333 6.46014 7.34667 6.71347L6.58667 7.47347C6.58667 7.60014 6.71333 7.85347 6.71333 7.98014C6.84 8.23347 7.09333 8.48681 7.34667 8.99347C7.6 9.37347 8.10667 9.88014 8.61333 10.3868C9.12 10.8935 9.62667 11.2735 10.0067 11.6535C10.3867 11.9068 10.7667 12.1601 11.02 12.2868C11.4 12.5401 11.5267 12.5401 11.5267 12.5401L12.4133 11.6535C13.0467 11.1468 13.9333 11.0201 14.44 11.2735C14.44 11.2735 14.5667 11.2735 14.5667 11.4001L18.1133 13.5535C18.62 13.9335 18.8733 14.3135 18.8733 14.6935C19 15.2001 18.7467 15.5801 18.3667 15.9601L15.96 18.3668C15.8333 18.4935 15.58 18.6201 15.3267 18.8735C15.0733 19.0001 14.82 19.0001 14.5667 19.0001H14.44C14.44 19.0001 14.3133 19.0001 14.1867 19.0001ZM1.39333 4.56014C1.39333 4.68681 1.39333 4.68681 1.39333 4.94014C1.39333 5.06681 1.39333 5.32014 1.52 5.70014C1.64667 6.08014 1.64667 6.46014 1.77333 6.96681C2.02667 7.47347 2.15333 7.98014 2.53333 8.61347C2.91333 9.24681 3.29333 9.88014 3.8 10.6401C4.30667 11.4001 5.06667 12.1601 5.82667 13.0468C6.84 14.0601 7.85333 14.9468 8.86667 15.5801C9.75333 16.0868 10.64 16.5935 11.2733 16.8468C12.0333 17.1001 12.54 17.3535 13.0467 17.3535C13.9333 17.4801 14.06 17.4801 14.3133 17.4801H14.44C14.5667 17.4801 14.5667 17.3535 14.6933 17.3535C14.82 17.3535 14.82 17.2268 14.82 17.2268L17.3533 14.8201C17.48 14.6935 17.48 14.6935 17.48 14.6935C17.48 14.6935 17.48 14.5668 17.3533 14.5668L14.06 12.6668C14.06 12.6668 13.9333 12.6668 13.9333 12.5401C13.9333 12.5401 13.68 12.5401 13.4267 12.6668L12.4133 13.6801C12.2867 13.8068 12.16 13.8068 12.0333 13.9335C11.9067 14.0601 11.6533 14.0601 11.5267 14.0601H11.4C11.2733 14.0601 10.8933 13.9335 10.5133 13.6801C10.26 13.5535 9.75333 13.3001 9.24667 12.9201C8.86667 12.5401 8.23333 12.0335 7.72667 11.5268C7.22 11.0201 6.71333 10.3868 6.33333 9.88014C5.95333 9.37348 5.7 8.99347 5.44667 8.61347C5.32 8.23347 5.19333 7.85347 5.06667 7.60014V7.47347C5.06667 7.34681 5.19333 6.84014 5.32 6.58681L6.33333 5.70014C6.33333 5.70014 6.33333 5.57347 6.33333 5.44681C6.33333 5.32014 6.33333 5.32014 6.33333 5.32014L4.30667 1.52014V1.39347C4.30667 1.39347 4.18 1.39347 4.18 1.52014L1.64667 3.92681C1.64667 4.05347 1.64667 4.05347 1.52 4.18014C1.52 4.30681 1.39333 4.43347 1.39333 4.56014Z" fill="currentColor"/>
</g>
<defs>
<clipPath id="clip0">
<rect width="19" height="19" fill="white"/>
</clipPath>
</defs>
</svg>
