<svg width="27" height="23" viewBox="0 0 27 23" fill="none" xmlns="http://www.w3.org/2000/svg">
<g clip-path="url(#clip0)">
<path d="M27.0008 4.78187C26.8954 4.77471 26.79 4.75324 26.6916 4.75324C20.6214 4.75324 14.5581 4.75324 8.48788 4.74608C8.24901 4.74608 8.15064 4.80333 8.09444 5.06096C7.66587 7.00028 6.02886 8.33849 4.09678 8.33134C2.17172 8.33134 0.53472 6.97882 0.099123 5.04664C-0.413758 2.74235 1.16704 0.387964 3.46446 0.0516229C5.67055 -0.270406 7.60966 1.08927 8.10849 3.322C8.15064 3.51522 8.21388 3.57963 8.4106 3.57963C14.53 3.57247 20.6495 3.57247 26.7689 3.57247C26.8462 3.57247 26.9235 3.55816 27.0008 3.54384C27.0008 3.9589 27.0008 4.36681 27.0008 4.78187ZM4.11083 7.14341C5.72676 7.13625 7.03355 5.79804 7.02652 4.15212C7.02652 2.49188 5.70568 1.17514 4.06165 1.1823C2.4668 1.18946 1.16704 2.53482 1.17406 4.17359C1.18109 5.81951 2.49491 7.15056 4.11083 7.14341Z" fill="currentColor"/>
<path d="M27 19.429C26.3045 19.429 25.616 19.4219 24.9204 19.4219C22.6441 19.4219 20.3747 19.4219 18.0984 19.4219C17.993 19.4219 17.8876 19.4219 17.7682 19.4219C17.5574 20.6384 16.9813 21.6117 15.9836 22.2987C15.253 22.8068 14.4309 23.0286 13.5457 23C11.7471 22.9356 10.0258 21.626 9.6464 19.429C6.44968 19.429 3.25296 19.429 0.0351562 19.429C0.0351562 19.0283 0.0351562 18.6562 0.0351562 18.2554C3.23188 18.2554 6.4286 18.2554 9.62532 18.2554C9.71666 17.9405 9.77989 17.64 9.88527 17.3609C10.5176 15.6434 12.2178 14.527 13.9672 14.6702C15.8361 14.8204 17.3537 16.1586 17.712 17.9978C17.7541 18.2053 17.8244 18.2483 18.0141 18.2483C20.9017 18.2411 23.7893 18.2411 26.6768 18.2483C26.7822 18.2483 26.8876 18.2554 26.993 18.2554C27 18.6419 27 19.0354 27 19.429ZM13.7143 21.8192C15.3443 21.8049 16.637 20.4738 16.63 18.8279C16.623 17.1748 15.3092 15.8366 13.7003 15.8509C12.0773 15.8581 10.7635 17.2249 10.7775 18.878C10.7916 20.4882 12.1265 21.8335 13.7143 21.8192Z" fill="currentColor"/>
</g>
<defs>
<clipPath id="clip0">
<rect width="27" height="23" fill="white"/>
</clipPath>
</defs>
</svg>
