<svg class="icons-social__item" width="6" height="14" viewBox="0 0 6 14" fill="none" xmlns="http://www.w3.org/2000/svg">
<path d="M3.95852 14C3.05185 14 2.16889 14 1.27111 14C1.27111 11.6702 1.27111 9.34995 1.27111 7.00404C0.838519 7.00404 0.423704 7.00404 0 7.00404C0 6.16851 0 5.35869 0 4.52959C0.420741 4.52959 0.832593 4.52959 1.26815 4.52959C1.26815 4.45246 1.26815 4.38819 1.26815 4.32713C1.27407 3.74869 1.25037 3.16703 1.29185 2.5918C1.35704 1.65986 1.69778 0.875748 2.46815 0.374429C2.82074 0.146265 3.21185 0.0177222 3.62074 0.00808148C4.39407 -0.00798641 5.17037 0.00486791 5.95556 0.00486791C5.95556 0.792195 5.95556 1.57952 5.95556 2.39577C5.90815 2.39577 5.85778 2.39577 5.80444 2.39577C5.3837 2.39577 4.96593 2.39577 4.54519 2.39577C4.19556 2.39898 3.97037 2.60144 3.95852 2.97421C3.94074 3.48196 3.95556 3.9897 3.95556 4.51995C4.63407 4.51995 5.30667 4.51995 6 4.51995C5.92 5.35548 5.84296 6.1653 5.76593 6.99761C5.16148 6.99761 4.56889 6.99761 3.95852 6.99761C3.95852 9.34031 3.95852 11.6605 3.95852 14Z" fill="currentColor" fill-opacity="0.5"/>
</svg>
