<svg class="social-media__icon" width="103" height="103" viewBox="0 0 103 103" fill="none" xmlns="http://www.w3.org/2000/svg">
<circle cx="51.5" cy="51.5" r="51.5" fill="currentColor"/>
<path d="M52.9378 63.4434C51.5778 63.4434 50.2533 63.4434 48.9067 63.4434C48.9067 59.7084 48.9067 55.9889 48.9067 52.2282C48.2578 52.2282 47.6356 52.2282 47 52.2282C47 50.8887 47 49.5905 47 48.2614C47.6311 48.2614 48.2489 48.2614 48.9022 48.2614C48.9022 48.1377 48.9022 48.0347 48.9022 47.9368C48.9111 47.0095 48.8756 46.0771 48.9378 45.1549C49.0356 43.6609 49.5467 42.4039 50.7022 41.6002C51.2311 41.2345 51.8178 41.0284 52.4311 41.013C53.5911 40.9872 54.7556 41.0078 55.9333 41.0078C55.9333 42.27 55.9333 43.5321 55.9333 44.8407C55.8622 44.8407 55.7867 44.8407 55.7067 44.8407C55.0756 44.8407 54.4489 44.8407 53.8178 44.8407C53.2933 44.8458 52.9556 45.1704 52.9378 45.768C52.9111 46.5819 52.9333 47.3959 52.9333 48.2459C53.9511 48.2459 54.96 48.2459 56 48.2459C55.88 49.5853 55.7644 50.8836 55.6489 52.2179C54.7422 52.2179 53.8533 52.2179 52.9378 52.2179C52.9378 55.9734 52.9378 59.6929 52.9378 63.4434Z" fill="black" fill-opacity="0.5"/>
</svg>
