<svg class="social-media__icon" width="103" height="103" viewBox="0 0 103 103" fill="none" xmlns="http://www.w3.org/2000/svg">
<circle cx="51.5" cy="51.5" r="51.5" fill="currentColor"/>
<g clip-path="url(#clip0)">
<path d="M51.4938 41C50.0751 41.0255 48.6563 41.0383 47.2376 41.0766C46.0042 41.1149 44.8155 41.332 43.7482 41.996C42.3678 42.8516 41.5242 44.0967 41.2494 45.6865C41.0897 46.6379 41.0322 47.6212 41.013 48.5853C40.981 50.6604 40.9938 52.7355 41.013 54.8106C41.0258 55.9216 41.0641 57.0325 41.4348 58.0988C42.1441 60.1292 43.5821 61.3487 45.6718 61.7446C46.6113 61.9234 47.5891 61.9617 48.5541 61.9808C50.6438 62.0128 52.74 62 54.8362 61.9808C55.929 61.9681 57.0282 61.9298 58.0827 61.5594C60.1149 60.8507 61.342 59.4269 61.7446 57.339C61.9235 56.394 61.9682 55.4108 61.981 54.4403C62.013 52.3652 62.0002 50.2901 61.981 48.215C61.9682 47.0976 61.9299 45.9866 61.5528 44.9203C60.8435 42.8963 59.4119 41.6704 57.3222 41.2746C56.3827 41.0958 55.4049 41.0766 54.4399 41.0383C53.4622 41 52.478 41.0319 51.4938 41.0319C51.4938 41.0192 51.4938 41.0128 51.4938 41ZM42.8599 51.5096C42.8727 51.5096 42.8855 51.5096 42.8982 51.5096C42.8982 50.6221 42.8727 49.7346 42.9046 48.8471C42.9366 47.9596 42.9622 47.0721 43.0836 46.1973C43.3136 44.5756 44.3681 43.4582 45.985 43.1581C46.918 42.9857 47.8894 42.9538 48.8416 42.9346C50.6119 42.9027 52.3821 42.9091 54.1524 42.9346C55.0471 42.9474 55.9482 42.9793 56.8301 43.1198C58.3447 43.356 59.3864 44.2244 59.7954 45.7312C59.9488 46.2931 60.0191 46.8933 60.0382 47.4743C60.083 49.2365 60.1021 50.9988 60.0958 52.7546C60.0894 54.0252 60.0574 55.2958 59.9552 56.5601C59.8082 58.3031 58.7281 59.5354 57.009 59.8674C56.076 60.0462 55.1046 60.0781 54.1524 60.0909C52.3821 60.1228 50.6119 60.1165 48.8416 60.0973C48.0492 60.0909 47.2503 60.0462 46.4579 59.9632C45.7102 59.8866 45.0072 59.644 44.4065 59.1715C43.4223 58.3925 43.0516 57.3199 42.9941 56.1259C42.9174 54.5871 42.9046 53.0483 42.8599 51.5096Z" fill="black" fill-opacity="0.5"/>
<path d="M51.4942 56.8985C54.4339 56.9049 56.856 54.5105 56.9008 51.6309C56.9455 48.5725 54.4723 46.1207 51.5325 46.1207C48.5672 46.1271 46.1515 48.5023 46.1068 51.3883C46.0557 54.4275 48.5097 56.9176 51.4942 56.8985ZM51.4942 55.0021C49.577 54.9958 47.9984 53.4187 48.0048 51.5032C48.0112 49.5877 49.5897 48.0107 51.507 48.017C53.4306 48.0234 55.0027 49.6005 54.9963 51.516C54.9963 53.4315 53.4114 55.0085 51.4942 55.0021Z" fill="black" fill-opacity="0.5"/>
<path d="M45.9021 44.6522C45.1863 44.6522 44.6367 45.2013 44.6367 45.91C44.6367 46.606 45.1863 47.1679 45.8829 47.1743C46.5731 47.1806 47.161 46.606 47.1674 45.9164C47.1738 45.2205 46.605 44.6586 45.9021 44.6522Z" fill="black" fill-opacity="0.5"/>
</g>
<defs>
<clipPath id="clip0">
<rect width="21" height="21" fill="white" transform="matrix(-1 0 0 1 62 41)"/>
</clipPath>
</defs>
</svg>
